<svg width="100" height="28" viewBox="0 0 100 28" fill="none" xmlns="http://www.w3.org/2000/svg">
<g clip-path="url(#clip0_2837_109)">
<path d="M40.0911 6.65174L39.9393 7.51642C39.8947 7.76119 39.8084 7.95808 39.612 7.87028C39.0884 7.69202 38.4783 7.55899 38.0647 7.55899C36.8656 7.55899 36.3655 8.11239 36.3655 9.77258V11.4567H38.981C39.1983 11.4567 39.3083 11.5685 39.3083 11.7893V12.787C39.3083 13.0079 39.1983 13.1196 38.981 13.1196H36.3655V22.1309C36.3655 22.3517 36.2556 22.4635 36.0383 22.4635H34.7528C34.5355 22.4635 34.4255 22.3517 34.4255 22.1309V13.1196H33.2919C33.0746 13.1196 32.9646 13.0079 32.9646 12.787V11.9463L34.4255 11.5712V9.42404C34.4255 7.25303 35.4937 5.85889 37.5646 5.85889C38.261 5.85889 38.9601 6.0132 39.7874 6.32448C39.9393 6.38834 40.1356 6.47614 40.0911 6.65174Z" fill="#052B3B"/>
<path d="M48.6892 16.1738C48.5582 14.048 47.7964 12.9864 45.6155 12.9864C43.7854 12.9864 42.7827 13.8937 42.6099 16.1738H48.6892ZM50.6266 16.1738V16.1951C50.6266 17.1263 50.2784 17.7009 49.1447 17.7009L42.6073 17.7462C42.7801 20.2045 44.1755 21.0027 46.2674 20.9575C47.6183 20.9122 48.7939 20.2498 49.4694 19.7176C49.6448 19.5846 49.7966 19.7176 49.9275 19.9385L50.3857 20.7366C50.4721 20.9149 50.3648 21.0479 50.1893 21.157C49.4929 21.7104 48.0765 22.6842 45.8747 22.6842C43.4791 22.6842 40.6018 21.3326 40.6018 16.9719C40.6018 13.1407 42.6073 11.2358 45.6783 11.2358C49.6264 11.2358 50.6266 14.2262 50.6266 16.1738Z" fill="#052B3B"/>
<path d="M59.9917 16.1738C59.8607 14.048 59.0989 12.9864 56.918 12.9864C55.0879 12.9864 54.0852 13.8937 53.9124 16.1738H59.9917ZM61.9291 16.1738V16.1951C61.9291 17.1263 61.5808 17.7009 60.4472 17.7009L53.9098 17.7462C54.0826 20.2045 55.478 21.0027 57.5699 20.9575C58.9208 20.9122 60.0964 20.2498 60.7718 19.7176C60.9473 19.5846 61.0991 19.7176 61.23 19.9385L61.6882 20.7366C61.7746 20.9149 61.6672 21.0479 61.4918 21.157C60.7954 21.7104 59.379 22.6842 57.1772 22.6842C54.7816 22.6842 51.9043 21.3326 51.9043 16.9719C51.9043 13.1407 53.9098 11.2358 56.9808 11.2358C60.9263 11.2358 61.9291 14.2262 61.9291 16.1738Z" fill="#052B3B"/>
<path d="M71.1392 19.0765V13.0742C70.2229 13.0077 69.3301 12.9864 68.5892 12.9864C66.4528 12.9864 65.1909 14.1837 65.1909 16.9719C65.1909 18.5656 65.5391 20.9362 67.9137 20.9362C69.1364 20.9362 70.3983 19.8507 71.1392 19.0765ZM73.0793 11.7892V21.0027C73.0793 26.2733 71.5529 28 67.3718 28C66.2172 28 64.9972 27.6887 64.3217 27.4679C64.1698 27.4226 63.9735 27.3135 64.0154 27.1353L64.1672 26.2493C64.2117 26.0072 64.2981 25.829 64.4945 25.8955C65.1254 26.0737 66.2591 26.3371 67.1309 26.3371C70.2046 26.3371 71.1392 25.2516 71.1392 21.6652V20.8457C70.4638 21.5987 69.1992 22.6842 67.5446 22.6842C64.0808 22.6842 63.209 19.4729 63.209 16.9719C63.209 13.319 65.3663 11.2358 68.6128 11.2358C69.681 11.2358 71.4011 11.3236 72.752 11.4566C72.9484 11.4805 73.0793 11.5683 73.0793 11.7892Z" fill="#052B3B"/>
<path d="M83.0753 16.9719C83.0753 14.0719 81.7688 12.9864 79.7188 12.9864C77.6479 12.9864 76.3415 14.0719 76.3415 16.9719C76.3415 19.8294 77.6479 20.9575 79.7188 20.9575C81.7662 20.9575 83.0753 19.8294 83.0753 16.9719ZM74.3569 16.9719C74.3569 12.8082 76.6007 11.2358 79.7162 11.2358C82.8108 11.2358 85.0546 12.9412 85.0546 16.9719C85.0546 20.6701 82.8108 22.6842 79.7162 22.6842C76.6033 22.6842 74.3569 20.6701 74.3569 16.9719Z" fill="#052B3B"/>
<path d="M99.9778 11.6616L96.3046 22.3757C96.2365 22.5593 96.1239 22.6497 95.9223 22.6497H94.5478C94.3462 22.6497 94.231 22.5593 94.1656 22.3757L92.3643 17.0413L90.563 22.3757C90.495 22.5593 90.3824 22.6497 90.1808 22.6497H88.8063C88.6047 22.6497 88.4895 22.5593 88.424 22.3757L84.7508 11.6616C84.6827 11.4328 84.7744 11.2732 85.0205 11.2732H86.5076C86.7118 11.2732 86.8453 11.3663 86.8898 11.5472L89.5708 20.2472L91.4401 14.41L90.5159 11.6616C90.4478 11.4328 90.5395 11.2732 90.7856 11.2732H92.1156C92.3172 11.2732 92.4533 11.3663 92.4978 11.5472L95.1552 20.1994L97.8362 11.5472C97.8807 11.3636 98.0168 11.2732 98.2184 11.2732H99.7055C99.9568 11.2705 100.046 11.4328 99.9778 11.6616Z" fill="#052B3B"/>
<mask id="mask0_2837_109" style="mask-type:alpha" maskUnits="userSpaceOnUse" x="0" y="0" width="29" height="28">
<path d="M28.1656 0H0V28H28.1656V0Z" fill="url(#paint0_linear_2837_109)"/>
</mask>
<g mask="url(#mask0_2837_109)">
<path d="M26.5136 10.7624C27.1001 10.7624 27.5766 10.2781 27.5766 9.68217V5.92545C27.5766 2.64498 24.9506 -0.0235596 21.7225 -0.0235596H5.85672C2.62858 -0.0235596 0.00261667 2.64498 0.00261667 5.92545V13.987C0.00261667 14.5829 0.479113 15.0671 1.06557 15.0671H8.3701L11.0092 21.4472C11.1872 21.8808 11.6113 22.1442 12.0643 22.107C12.5198 22.0751 12.9021 21.7505 13.0173 21.3008L15.8265 10.3074L17.5204 14.4047C17.6854 14.8064 18.0702 15.0645 18.4996 15.0645H25.4481V22.0458C25.4481 24.1343 23.7751 25.8344 21.7199 25.8344H5.8541C3.79888 25.8344 2.12591 24.1343 2.12591 22.0458V18.305C2.12591 17.7091 1.64941 17.2249 1.06295 17.2249C0.476496 17.2249 0 17.7091 0 18.305V22.0458C0 25.3263 2.62597 27.9948 5.8541 27.9948H21.7199C24.948 27.9948 27.574 25.3263 27.574 22.0458V13.9843C27.574 13.3883 27.0975 12.9041 26.511 12.9041H19.2065L16.5674 6.52408C16.392 6.10105 15.9705 5.835 15.5123 5.86426C15.0568 5.89885 14.6745 6.22078 14.5593 6.67041L11.7501 17.6612L10.0562 13.5639C9.89123 13.1622 9.50637 12.9014 9.077 12.9014H2.12852V5.92013C2.12852 3.83159 3.8015 2.1315 5.85672 2.1315H21.7225C23.7777 2.1315 25.4507 3.83159 25.4507 5.92013V9.67684C25.4507 10.2781 25.9272 10.7624 26.5136 10.7624Z" fill="url(#paint1_linear_2837_109)"/>
</g>
</g>
<defs>
<linearGradient id="paint0_linear_2837_109" x1="27.429" y1="0.695489" x2="0.317618" y2="26.7409" gradientUnits="userSpaceOnUse">
<stop stop-color="#00A2E7"/>
<stop offset="0.484375" stop-color="#00C4AA"/>
<stop offset="1" stop-color="#00E176"/>
</linearGradient>
<linearGradient id="paint1_linear_2837_109" x1="26.0225" y1="1.55562" x2="2.37618" y2="25.1309" gradientUnits="userSpaceOnUse">
<stop stop-color="#01A6E0"/>
<stop offset="1" stop-color="#01DD7D"/>
</linearGradient>
<clipPath id="clip0_2837_109">
<rect width="100" height="28" fill="white"/>
</clipPath>
</defs>
</svg>
