<svg width="92" height="21" viewBox="0 0 92 21" fill="none" xmlns="http://www.w3.org/2000/svg">
<g clip-path="url(#clip0_2797_127)">
<path d="M31.1412 4.37704C31.8898 4.37704 32.4946 3.76986 32.4946 3.02369C32.4946 2.27508 31.8874 1.67035 31.1412 1.67035C30.3926 1.67035 29.7879 2.27752 29.7879 3.02369C29.7879 3.77229 30.3951 4.37704 31.1412 4.37704Z" fill="#00C3A5"/>
<path d="M29.8927 5.53848V15.1745C29.8927 16.9643 29.4172 17.5447 28.515 17.5471C28.276 17.5471 27.9981 17.5252 27.803 17.4813L27.6079 19.3979C27.8859 19.4613 28.3882 19.5052 28.6906 19.5052C31.6655 19.5052 32.3117 17.4569 32.3117 14.6137V5.53848H29.8927Z" fill="#00C3A5"/>
<path fill-rule="evenodd" clip-rule="evenodd" d="M76.377 5.53286C73.3387 5.53286 71.7659 7.83964 71.7659 11.0925V11.1632C71.7659 14.6551 73.446 16.6156 75.9235 16.6156C77.2378 16.6156 78.2961 16.0938 79.0593 15.2574H79.0813L79.308 16.3035H81.2759V1.67279L78.8715 1.98629V6.29122C78.2693 5.82791 77.3329 5.53286 76.377 5.53286ZM76.6794 14.5186C74.87 14.5186 74.2653 12.9897 74.2653 11.1145C74.2653 9.26126 74.8896 7.68845 76.8086 7.68845C77.6353 7.68845 78.3765 7.97863 78.8715 8.41999V13.5554C78.3351 14.1016 77.528 14.5186 76.6794 14.5186Z" fill="#00C3A5"/>
<path fill-rule="evenodd" clip-rule="evenodd" d="M61.1123 11.0632V11.1071C61.1123 14.9014 62.9119 16.6156 66.3379 16.6132C67.5157 16.6132 68.4423 16.5108 69.5323 16.3401V14.343C68.5617 14.4698 67.5156 14.5746 66.4013 14.5746C64.6407 14.5746 63.7824 13.6968 63.6117 12.2239H70.2345C70.276 11.8314 70.3028 11.2998 70.3028 10.9145C70.3028 7.27145 68.9105 5.53527 65.9112 5.53527C62.6753 5.53527 61.1123 7.84936 61.1123 11.0632ZM63.5751 10.4488H67.8814C67.8814 8.81255 67.4547 7.52261 65.8453 7.52261C64.175 7.52261 63.619 8.90033 63.5751 10.4488Z" fill="#00C3A5"/>
<path fill-rule="evenodd" clip-rule="evenodd" d="M35.2281 5.64988C36.262 5.56209 37.3861 5.5377 38.4712 5.5377C41.0267 5.5377 42.5508 6.52528 42.5556 9.32219V16.3059H40.4122L40.3049 15.2598H40.2781C39.5442 16.0499 38.4761 16.5132 37.1081 16.5132C35.2964 16.5132 33.8577 15.3403 33.8577 13.0165C33.8577 10.856 35.6597 8.84181 40.1708 9.80013V9.17101C40.1708 7.92496 39.4393 7.57626 38.0006 7.57626C37.1154 7.57626 36.3668 7.63478 35.2281 7.73231V5.64988ZM40.1684 11.451C38.2566 10.9633 36.3449 11.5607 36.3449 13.0384C36.3449 14.0187 36.996 14.5941 37.9665 14.5527C38.7297 14.5185 39.571 14.1796 40.1684 13.6504V11.451Z" fill="#00C3A5"/>
<path fill-rule="evenodd" clip-rule="evenodd" d="M84.2069 5.64988C85.2408 5.56209 86.3649 5.5377 87.45 5.5377C90.0055 5.5377 91.532 6.52528 91.5344 9.32219V16.3059H89.391L89.2838 15.2598H89.2569C88.523 16.0499 87.4549 16.5132 86.0869 16.5132C84.2752 16.5132 82.8365 15.3403 82.8365 13.0165C82.8365 10.856 84.6385 8.84181 89.1496 9.80013V9.17101C89.1496 7.92496 88.4181 7.57626 86.9794 7.57626C86.0943 7.57626 85.3457 7.63478 84.2069 7.73231V5.64988ZM89.1472 11.451C87.2355 10.9633 85.3237 11.5607 85.3237 13.0384C85.3237 14.0187 85.9748 14.5941 86.9453 14.5527C87.7085 14.5185 88.5498 14.1796 89.1472 13.6504V11.451Z" fill="#00C3A5"/>
<path d="M52.8581 7.23731C52.3753 6.11074 51.4121 5.5377 49.8637 5.5377C48.3689 5.5377 47.3545 6.3619 46.779 7.26169H46.7498C46.7083 6.88861 46.6108 5.84983 46.6108 5.84983H44.5356V16.3011H46.9205V10.8048C46.9205 9.14174 47.9202 7.81766 49.1224 7.72744C50.3636 7.63478 50.8537 8.30292 50.8537 10.0025V16.3011H53.2385V10.8048C53.2385 9.01738 54.2383 7.80303 55.4404 7.72744C56.6767 7.64941 57.1717 8.30292 57.1717 10.0025V16.3011H59.5565V9.51239C59.5565 6.89105 58.5592 5.5377 56.1817 5.5377C54.7406 5.5377 53.5531 6.30582 52.8581 7.23731Z" fill="#00C3A5"/>
<path fill-rule="evenodd" clip-rule="evenodd" d="M1.31677 5.47677L8.2493 7.11054L8.84672 0H13.0969L13.6358 6.43021C11.1974 7.2666 9.76114 7.93473 8.11762 8.94425C6.90327 9.68798 5.80109 10.5585 4.81351 11.5583L0 9.52705L1.31677 5.47677ZM7.21783 20.8927C10.0513 15.1135 15.4647 10.8316 21.951 9.55387L20.6318 5.49384C12.7629 6.38144 6.06688 11.1511 2.48479 17.8495L7.21783 20.8927ZM12.1752 16.8912L15.6232 20.9L19.0614 18.403L15.7061 12.8507C14.1894 13.7822 12.7044 15.5964 12.1752 16.8912Z" fill="#00C3A5"/>
</g>
<defs>
<clipPath id="clip0_2797_127">
<rect width="91.542" height="20.9" fill="white"/>
</clipPath>
</defs>
</svg>
