<svg width="584" height="465" viewBox="0 0 584 465" fill="none" xmlns="http://www.w3.org/2000/svg">
<path fill-rule="evenodd" clip-rule="evenodd" d="M116.638 221.759C104.875 214.5 89.7035 212 75.902 212C55.5284 212 35.9825 219.842 21.5238 236.382C7.17459 252.922 0 275.925 0 305.39C0 336.607 7.11982 361.208 21.3595 374.791C35.7086 388.264 52.5 395 73.6018 395C91 395 102.891 390.608 111.216 386.227C119.541 381.846 126.875 376 133 368C133 393.5 131.162 407.08 127 416.5C119.99 432.492 104.972 440.611 82.2986 440.611C67.9494 440.611 57.434 437.325 50.7523 430.753C46.4804 426.481 43.6325 420.402 42.2085 412.516H12.141C13.6745 430.589 20.9038 443.843 33.829 452.277C46.7543 460.821 62.5503 465 81.5 465C115.566 465 138.874 453.153 151.142 429.274C157.714 416.349 161 398.714 161 376.369V216H133V232.5V237.609C127.75 230.75 123.266 225.849 116.638 221.759ZM120.253 253.47C129.235 263.985 133.726 280.142 133.726 301.939C133.726 316.398 131.316 331.25 126.496 342.094C117.843 361.263 98.3021 370.847 77.0521 370.847C63.4697 370.847 50.496 365.699 42.3903 355.403C34.3942 344.997 30.3962 327.68 30.3962 307.854C30.3962 290.986 32.241 277.276 36.4754 266.943C44.75 246.75 60.5122 238.124 81.324 238.124C95.2351 238.124 111.271 242.954 120.253 253.47ZM357.905 351.952C348.813 363.454 337.367 369.204 323.565 369.204C303.192 369.204 289.171 360.113 281.504 341.93C277.451 332.4 275.424 322.422 275.424 308.84C275.424 291.971 277.451 279.638 281.504 268.685C289.062 248.202 303.082 237.96 323.565 237.96C343.939 237.96 357.96 246.076 365.627 265.464C369.68 275.541 371.768 287.59 371.768 301.61C371.768 324.613 367.106 340.342 357.905 351.952ZM275 216H247V461H275V368C280 376 288.897 383.006 294.155 386.292C303.137 392.097 314.255 395 327.509 395C344.377 395 359.165 389.797 371.871 379.391C391.916 362.961 402 337.155 402 298.817C402 270.447 394.983 248.65 381.072 233.424C367.161 218.089 350.237 212 330.302 212C316.829 212 305.109 215.286 295.141 221.858C288.131 226.24 280.5 232.5 275 241V216ZM502 212C477.5 212 457.251 220.67 442.429 237.52C427.919 254.016 420 276.15 420 303.499H420.006L420 303.501C420 330.85 427.919 352.984 442.429 369.48C457.251 386.33 477.5 395 502 395C526.5 395 546.749 386.33 561.571 369.48C576.081 352.984 584 330.85 584 303.501L583.995 303.499H584C584 276.15 576.081 254.016 561.571 237.52C546.749 220.67 526.5 212 502 212ZM450.313 303.501L450.307 303.499H450.313C450.313 285.599 454.702 270.033 462.586 257.141C470.779 243.741 484 237.042 502 237.042C520 237.042 533.221 243.741 541.414 257.141C549.298 270.033 553.687 285.599 553.687 303.499H553.692L553.687 303.501C553.687 321.401 549.298 336.967 541.414 349.859C533.221 363.259 520 369.958 502 369.958C484 369.958 470.779 363.259 462.586 349.859C454.702 336.967 450.313 321.401 450.313 303.501ZM189 216H219V391H189V216Z" fill="#3D83DF"/>
<path d="M219.911 168C219.911 176.862 212.773 184 203.911 184C195.05 184 187.911 176.862 187.911 168C187.911 159.138 195.111 152 203.911 152C212.711 152 219.911 159.138 219.911 168Z" fill="#3D83DF"/>
<path opacity="0.4" d="M219.189 16C219.189 24.8615 211.989 32 203.189 32C194.327 32 187.189 24.8 187.189 16C187.189 7.13846 194.327 0 203.189 0C211.989 0 219.189 7.2 219.189 16Z" fill="#3D83DF"/>
<path opacity="0.7" d="M296 91.8101C296 100.672 288.8 107.81 280 107.81C271.138 107.81 264 100.61 264 91.8101C264 83.0101 271.2 75.8101 280 75.8101C288.8 75.8101 296 82.9485 296 91.8101Z" fill="#3D83DF"/>
<path opacity="0.15" d="M144 91.7497C144 100.611 136.814 107.75 127.969 107.75C119.125 107.75 112 100.611 112 91.7497C112 82.8883 119.186 75.7499 127.969 75.7499C136.814 75.6884 144 82.8883 144 91.7497Z" fill="#3D83DF"/>
<path opacity="0.1" d="M154.434 129.965C154.434 138.827 147.234 145.965 138.434 145.965C129.572 145.965 122.434 138.765 122.434 129.965C122.434 121.165 129.634 113.965 138.434 113.965C147.234 113.965 154.434 121.104 154.434 129.965Z" fill="#3D83DF"/>
<path opacity="0.2" d="M154.313 54.1362C154.313 62.9978 147.113 70.1362 138.313 70.1362C129.452 70.1362 122.313 62.9978 122.313 54.1362C122.313 45.2747 129.513 38.1362 138.313 38.1362C147.175 38.1362 154.313 45.2747 154.313 54.1362Z" fill="#3D83DF"/>
<path opacity="0.8" d="M285.449 129.664C285.449 138.525 278.311 145.664 269.449 145.664C260.588 145.664 253.449 138.464 253.449 129.664C253.449 120.864 260.588 113.664 269.449 113.664C278.311 113.664 285.449 120.864 285.449 129.664Z" fill="#3D83DF"/>
<path opacity="0.6" d="M285.509 53.8662C285.509 62.7107 278.309 69.8354 269.509 69.8354C260.647 69.8354 253.509 62.7107 253.509 53.8662C253.509 45.0216 260.709 37.8354 269.509 37.8354C278.309 37.8354 285.509 45.0216 285.509 53.8662Z" fill="#3D83DF"/>
<path opacity="0.05" d="M181.937 157.468C181.937 166.329 174.737 173.468 165.937 173.468C157.076 173.468 149.937 166.268 149.937 157.468C149.937 148.668 157.137 141.468 165.937 141.468C174.737 141.407 181.937 148.607 181.937 157.468Z" fill="#3D83DF"/>
<path opacity="0.3" d="M181.997 26.3931C181.997 35.2546 174.81 42.3931 165.966 42.3931C157.121 42.3931 149.997 35.1931 149.997 26.3931C149.997 17.5315 157.183 10.3931 165.966 10.3931C174.872 10.3931 181.997 17.5315 181.997 26.3931Z" fill="#3D83DF"/>
<path opacity="0.9" d="M257.766 157.468C257.766 166.329 250.628 173.468 241.766 173.468C232.905 173.468 225.766 166.268 225.766 157.468C225.766 148.606 232.905 141.468 241.766 141.468C250.628 141.468 257.766 148.606 257.766 157.468Z" fill="#3D83DF"/>
<path opacity="0.5" d="M257.886 26.332C257.886 35.1936 250.748 42.332 241.886 42.332C233.025 42.332 225.886 35.132 225.886 26.332C225.886 17.4705 233.025 10.332 241.886 10.332C250.748 10.332 257.886 17.4705 257.886 26.332Z" fill="#3D83DF"/>
</svg>
